<svg width="174" height="173" viewBox="0 0 174 173" fill="none" xmlns="http://www.w3.org/2000/svg">
<rect x="9" y="9" width="156" height="156" stroke="#2B486E" stroke-width="8"/>
<rect x="155" width="19" height="19" fill="#2B486E"/>
<rect x="155" y="154" width="19" height="19" fill="#2B486E"/>
<rect y="154" width="19" height="19" fill="#2B486E"/>
<rect width="19" height="19" fill="#2B486E"/>
<g clip-path="url(#clip0_489_8735)">
<path d="M45.33 96.9206C46.22 94.4406 47.33 93.1106 48.71 92.5506C48.09 80.7806 50.07 62.1606 38 58.5506C61.84 29.0506 89.32 13.0006 110 39.2306C133.71 40.4806 143.87 76.4706 127.56 94.2306C128.684 94.1896 129.799 94.4484 130.79 94.9806C131.434 95.3339 132.001 95.8122 132.458 96.3874C132.914 96.9627 133.252 97.6233 133.45 98.3306C133.955 100.309 133.886 102.39 133.25 104.331L133.18 104.561C132.88 105.441 132.62 106.561 132.35 107.721C131.26 112.451 130.06 117.661 124.66 117.371C124.372 117.361 124.084 117.331 123.8 117.281C123.6 127.091 118.8 131.601 112.52 137.491C111.72 138.241 110.9 139.021 110.11 139.781C103.76 145.911 96.82 148.871 89.76 148.881C82.7 148.891 75.39 145.811 68.76 139.881C67.76 138.981 67.07 138.391 66.41 137.821C60.26 132.531 55.12 128.101 54.14 117.321H53.6C52.3318 117.32 51.0852 116.993 49.98 116.371C47.37 114.941 46 112.211 45.34 109.091C44.6613 105.254 44.6072 101.334 45.18 97.4806C45.2086 97.2888 45.259 97.1009 45.33 96.9206ZM106.77 61.2906C101.33 66.7706 95.57 68.3506 89.93 68.8406C88.27 69.1406 86.65 69.3406 85.03 69.5406C79.62 70.2006 74.22 70.8706 67.03 75.8206C63.8955 77.8487 61.5026 80.838 60.21 84.3406C59.0614 88.1328 58.9887 92.1695 60 96.0006C60.1432 96.4796 60.1256 96.9924 59.95 97.4606C59.7335 98.0411 59.2983 98.5137 58.7375 98.7773C58.1768 99.0408 57.5351 99.0743 56.95 98.8706L54.22 97.8706C51.98 97.0906 50.59 96.8706 49.92 98.4206C49.4436 101.635 49.4706 104.904 50 108.111C50.41 110.021 51.11 111.611 52.26 112.261C52.6696 112.488 53.1314 112.605 53.6 112.601C54.2592 112.593 54.9133 112.485 55.54 112.281C55.7659 112.205 56.0019 112.165 56.24 112.161C56.8652 112.147 57.4704 112.381 57.9237 112.812C58.377 113.243 58.6417 113.835 58.66 114.461C58.92 125.171 63.66 129.261 69.45 134.241C70.34 135.011 71.25 135.791 71.86 136.331C77.66 141.501 83.77 144.161 89.76 144.161C95.58 144.161 101.4 141.621 106.83 136.381C107.71 135.531 108.51 134.781 109.28 134.051C115.34 128.361 119.81 124.161 118.95 113.941C118.915 113.499 119.005 113.056 119.209 112.663C119.413 112.27 119.723 111.941 120.104 111.715C120.485 111.489 120.922 111.375 121.365 111.385C121.808 111.394 122.239 111.528 122.61 111.771C123.005 112.04 123.432 112.262 123.88 112.431C124.2 112.555 124.537 112.633 124.88 112.661C126.32 112.731 127.06 109.551 127.72 106.661C128.02 105.381 128.31 104.131 128.72 103.041C129.094 101.968 129.176 100.816 128.96 99.7006C128.899 99.4583 128.749 99.2478 128.54 99.1106C128.137 98.9505 127.695 98.9123 127.27 99.0006C125.802 99.2276 124.421 99.842 123.27 100.781C123.012 100.977 122.716 101.117 122.401 101.193C122.086 101.268 121.759 101.278 121.44 101.221C120.823 101.113 120.273 100.765 119.912 100.254C119.55 99.7423 119.406 99.1083 119.51 98.4906C121.74 85.4906 120.72 77.0206 117.95 71.2406C115.52 66.1806 111.65 63.1106 107.45 60.8206L106.78 61.3306L106.77 61.2906ZM82.29 86.2906C84.83 87.2406 85.37 89.3606 83.95 90.1606C82.28 91.1006 80.18 89.7006 78.55 89.1606C74.3 87.8106 69.25 87.6506 65.55 89.9406C64.4773 90.6301 63.4728 91.4204 62.55 92.3006C62.903 90.9781 63.5185 89.7402 64.36 88.6606C68.04 84.0206 77.31 83.7406 82.23 86.2706L82.29 86.2906ZM69.07 95.4206C68.9337 95.4711 68.7881 95.4913 68.6432 95.4799C68.4983 95.4684 68.3577 95.4254 68.2311 95.354C68.1045 95.2826 67.9949 95.1845 67.9101 95.0665C67.8253 94.9484 67.7673 94.8133 67.74 94.6706C67.6453 94.3829 67.6591 94.0705 67.7788 93.7924C67.8985 93.5142 68.1159 93.2895 68.39 93.1606C72.4621 91.5806 76.9779 91.5806 81.05 93.1606C81.3265 93.2821 81.5487 93.5011 81.6741 93.7759C81.7995 94.0507 81.8194 94.362 81.73 94.6506C81.7044 94.7915 81.6488 94.9254 81.567 95.043C81.4851 95.1606 81.379 95.2592 81.2557 95.3322C81.1325 95.4053 80.9949 95.4509 80.8525 95.4662C80.71 95.4814 80.5659 95.4659 80.43 95.4206C79.7449 95.174 79.0472 94.9638 78.34 94.7906C78.4538 95.1941 78.4796 95.6175 78.4158 96.0319C78.3519 96.4463 78.1999 96.8422 77.9699 97.1928C77.7399 97.5434 77.4373 97.8406 77.0826 98.0642C76.7279 98.2879 76.3293 98.4328 75.9138 98.4891C75.4983 98.5455 75.0755 98.512 74.6741 98.391C74.2726 98.2699 73.9018 98.0641 73.5867 97.7874C73.2716 97.5107 73.0196 97.1697 72.8476 96.7872C72.6757 96.4048 72.5878 95.9899 72.59 95.5706C72.5845 95.186 72.6594 94.8045 72.81 94.4506C71.5258 94.6229 70.2689 94.959 69.07 95.4506V95.4206ZM96.24 86.3106C93.7 87.2606 93.17 89.3806 94.59 90.1806C96.26 91.1206 98.36 89.7206 99.98 89.1806C104.23 87.8306 109.27 87.6706 112.98 89.9606C114.049 90.6552 115.053 91.4451 115.98 92.3206C115.619 91.0013 115.004 89.7649 114.17 88.6806C110.48 84.0406 101.17 83.7606 96.29 86.2906L96.24 86.3106ZM101 94.5306C100.878 94.8503 100.81 95.1884 100.8 95.5306C100.796 95.975 100.894 96.4145 101.084 96.816C101.275 97.2175 101.554 97.5705 101.901 97.8485C102.248 98.1265 102.653 98.3222 103.087 98.4209C103.52 98.5197 103.97 98.5189 104.403 98.4186C104.836 98.3183 105.241 98.1211 105.587 97.8419C105.933 97.5627 106.211 97.2087 106.4 96.8066C106.589 96.4044 106.685 95.9646 106.68 95.5201C106.675 95.0757 106.569 94.6382 106.37 94.2406C107.685 94.3938 108.982 94.6785 110.24 95.0906C110.379 95.1341 110.526 95.1468 110.67 95.1277C110.814 95.1087 110.953 95.0583 111.076 94.9803C111.198 94.9022 111.303 94.7982 111.381 94.6756C111.46 94.553 111.51 94.4148 111.53 94.2706C111.611 93.9799 111.583 93.6695 111.45 93.3984C111.317 93.1273 111.089 92.9146 110.81 92.8006C108.766 92.1342 106.63 91.7966 104.48 91.8006C102.353 91.7931 100.239 92.1308 98.22 92.8006C97.941 92.9146 97.714 93.1279 97.5829 93.3993C97.4518 93.6708 97.4258 93.9811 97.51 94.2706C97.5308 94.4139 97.5826 94.551 97.6616 94.6724C97.7407 94.7938 97.8452 94.8966 97.9678 94.9736C98.0905 95.0507 98.2285 95.1001 98.3722 95.1186C98.5158 95.1371 98.6618 95.1241 98.8 95.0806C99.5217 94.8401 100.256 94.6398 101 94.4806V94.5306ZM84.38 118.281C84.2014 118.131 84.054 117.947 83.9463 117.741C83.8386 117.534 83.7727 117.308 83.7522 117.076C83.7318 116.844 83.7573 116.61 83.8273 116.388C83.8972 116.166 84.0103 115.959 84.16 115.781C84.3097 115.602 84.4931 115.455 84.6998 115.347C84.9064 115.239 85.1323 115.173 85.3644 115.153C85.5966 115.132 85.8305 115.158 86.0528 115.228C86.2751 115.298 86.4814 115.411 86.66 115.561C87.3515 116.232 88.2586 116.636 89.22 116.701C90.2237 116.649 91.1752 116.237 91.9 115.541C92.264 115.262 92.7219 115.135 93.1774 115.188C93.6328 115.24 94.0502 115.467 94.3418 115.82C94.6333 116.174 94.7763 116.627 94.7405 117.084C94.7047 117.541 94.493 117.966 94.15 118.271C92.7784 119.517 91.0031 120.227 89.15 120.271C87.3618 120.215 85.6567 119.503 84.36 118.271L84.38 118.281ZM79.07 129.281C78.8388 129.176 78.6316 129.024 78.461 128.836C78.2905 128.648 78.1602 128.427 78.0783 128.187C77.9964 127.947 77.9646 127.692 77.9848 127.439C78.005 127.186 78.0768 126.94 78.1958 126.715C78.3148 126.491 78.4784 126.293 78.6766 126.135C78.8749 125.976 79.1035 125.86 79.3484 125.793C79.5933 125.726 79.8493 125.71 80.1007 125.745C80.3521 125.781 80.5935 125.868 80.81 126.001C83.4132 127.461 86.3359 128.258 89.32 128.321C92.2614 128.287 95.1444 127.495 97.69 126.021C98.1219 125.802 98.6218 125.759 99.0846 125.901C99.5474 126.043 99.937 126.359 100.171 126.783C100.406 127.207 100.467 127.705 100.342 128.172C100.216 128.64 99.9148 129.041 99.5 129.291C96.4074 131.064 92.905 131.998 89.34 132.001C85.7433 131.937 82.217 130.993 79.07 129.251V129.281Z" fill="#2B486E"/>
</g>
<defs>
<clipPath id="clip0_489_8735">
<rect width="97.49" height="122.88" fill="white" transform="translate(38 26)"/>
</clipPath>
</defs>
</svg>
