<svg width="112" height="114" viewBox="0 0 112 114" fill="none" xmlns="http://www.w3.org/2000/svg">
<g clip-path="url(#clip0_130_10294)">
<path d="M99.2763 20.4759C101.065 21.7654 101.907 23.4093 101.741 25.6223C101.624 27.198 101.719 28.7902 101.719 30.5036C103.106 30.5036 104.371 30.5008 105.636 30.5042C108.261 30.5113 110.467 32.747 110.467 35.4166C110.469 55.8976 110.47 76.3787 110.467 96.8597C110.467 99.5253 108.257 101.752 105.617 101.752C72.7004 101.754 39.7839 101.754 6.86736 101.753C4.15706 101.753 1.96982 99.5414 1.96958 96.7988C1.96781 76.3549 1.96786 55.9109 1.96952 35.467C1.96974 32.719 4.15361 30.5088 6.86201 30.5039C8.09487 30.5017 9.32773 30.5036 10.7185 30.5036C10.7185 30.0171 10.7185 29.6244 10.7185 29.2318C10.7185 25.3359 10.7137 21.44 10.7204 17.5442C10.7248 14.9519 12.948 12.6941 15.5017 12.6928C24.0315 12.6883 32.5618 12.7352 41.0909 12.6498C42.6017 12.6346 43.6961 13.1317 44.7918 14.0626C46.8915 15.8463 49.0406 17.5718 51.2126 19.2635C51.6254 19.585 52.2392 19.7926 52.7607 19.7936C67.4145 19.8215 82.0684 19.8057 96.7222 19.8432C97.5477 19.8453 98.3722 20.2404 99.2763 20.4759ZM5.46852 41.3024C5.46852 59.2223 5.46831 77.1423 5.46878 95.0623C5.46885 97.4975 6.15464 98.1908 8.56281 98.1908C40.3113 98.1911 72.0597 98.1911 103.808 98.1909C106.297 98.1909 106.968 97.517 106.968 95.0179C106.969 75.7623 106.969 56.5066 106.968 37.2509C106.968 34.7422 106.3 34.0662 103.819 34.0662C72.1071 34.0659 40.3951 34.066 8.68304 34.066C8.50079 34.066 8.31852 34.0643 8.13629 34.0665C6.29568 34.0881 5.48924 34.8876 5.47152 36.7389C5.45766 38.1857 5.4686 39.6327 5.46852 41.3024ZM31.3904 16.2535C26.5439 16.2535 21.6975 16.2524 16.851 16.2542C14.8448 16.2549 14.2208 16.8783 14.2193 18.8839C14.2168 22.2221 14.218 25.5602 14.2188 28.8983C14.2192 30.5018 14.2204 30.5033 15.8175 30.5033C42.7463 30.5036 69.6752 30.5035 96.6041 30.5035C96.7134 30.5035 96.8245 30.4902 96.9318 30.5054C97.8858 30.6405 98.3322 30.3209 98.2378 29.2461C98.1473 28.2159 98.2194 27.1709 98.2183 26.1323C98.2161 23.96 97.6417 23.379 95.4883 23.3789C80.9124 23.3782 66.3366 23.372 51.7608 23.393C50.7922 23.3943 50.015 23.1326 49.2667 22.5054C47.073 20.6668 44.8174 18.9046 42.626 17.0631C41.9397 16.4864 41.2559 16.2181 40.3543 16.2342C37.4401 16.2862 34.5243 16.2535 31.3904 16.2535Z" fill="#2B486E"/>
<path d="M31.4998 16.2534C34.5243 16.2535 37.44 16.2861 40.3543 16.2341C41.2559 16.218 41.9397 16.4864 42.626 17.0631C44.8174 18.9045 47.073 20.6667 49.2667 22.5054C50.015 23.1325 50.7922 23.3943 51.7608 23.3929C66.3366 23.3719 80.9124 23.3781 95.4883 23.3788C97.6417 23.3789 98.216 23.9599 98.2183 26.1323C98.2194 27.1708 98.1473 28.2158 98.2378 29.2461C98.3322 30.3208 97.8858 30.6404 96.9317 30.5053C96.8245 30.4901 96.7134 30.5034 96.6041 30.5034C69.6752 30.5034 42.7463 30.5035 15.8175 30.5032C14.2204 30.5032 14.2192 30.5017 14.2188 28.8983C14.218 25.5601 14.2168 22.222 14.2193 18.8839C14.2208 16.8782 14.8448 16.2548 16.851 16.2541C21.6975 16.2523 26.5439 16.2535 31.4998 16.2534Z" fill="#2B486E"/>
<path d="M35.2192 63.9566C36.0474 56.9844 39.2889 51.6269 45.0149 47.9036C48.3682 45.7231 52.0579 44.7322 56.0825 44.7141C60.6539 44.6936 64.7615 45.9185 68.447 48.627C73.1659 52.0951 76.1183 56.713 76.9984 62.6072C77.8828 68.5302 76.7872 74.0377 73.2426 78.8785C69.8949 83.4506 65.4417 86.3643 59.8615 87.2656C53.4721 88.2976 47.6171 86.8849 42.6385 82.6309C38.7066 79.2713 36.1489 74.9604 35.4603 69.6956C35.2175 67.8397 35.2904 65.941 35.2192 63.9566ZM58.9231 48.5394C58.3442 48.473 57.7669 48.3746 57.1863 48.3448C46.1629 47.779 37.4565 57.3949 38.9008 68.5325C40.1911 78.4823 49.3674 85.3368 59.1839 83.6836C68.6865 82.0833 75.2157 72.5657 73.4327 62.9365C72.0718 55.5869 66.487 49.8596 58.9231 48.5394Z" fill="#2B486E"/>
<path d="M12.469 92.8473C17.1347 92.8473 21.6909 92.8459 26.2472 92.8482C27.7755 92.8489 28.2256 93.2659 28.2185 94.655C28.2119 95.9738 27.7443 96.408 26.3011 96.4086C20.5784 96.4113 14.8557 96.4114 9.13306 96.4086C7.68445 96.4079 7.2257 95.9808 7.21931 94.6548C7.21273 93.2885 7.65448 92.8558 9.07919 92.8485C10.1727 92.8429 11.2662 92.8474 12.469 92.8473Z" fill="#2B486E"/>
<path d="M29.9799 95.1871C29.966 93.1716 30.2772 92.8492 32.1424 92.8476C32.5412 92.8473 32.9401 92.8455 33.3389 92.848C34.8804 92.8578 35.6333 93.8999 35.1629 95.3885C35.0982 95.5932 34.9939 95.8034 34.8543 95.9622C33.9875 96.9473 30.5727 96.4619 29.9799 95.1871Z" fill="#2B486E"/>
<path d="M51.1536 56.2977C52.3672 55.0629 53.5175 53.8748 54.6876 52.7074C55.783 51.6146 56.6411 51.5866 57.7027 52.6599C61.0614 56.0551 64.4008 59.4701 67.7476 62.8776C68.3271 63.4676 68.665 64.1348 68.3227 64.9779C67.9689 65.8492 67.2727 66.1463 66.3926 66.1304C65.6645 66.1173 64.9333 66.1701 64.2086 66.1192C63.4491 66.0659 63.1937 66.3535 63.2058 67.131C63.244 69.5765 63.2249 72.0231 63.2163 74.4693C63.2102 76.2015 62.615 76.8096 60.9146 76.8138C57.7831 76.8217 54.6516 76.8218 51.5201 76.8138C49.8187 76.8095 49.2268 76.2034 49.2209 74.4684C49.2125 72.0223 49.1931 69.5757 49.2314 67.1301C49.2436 66.3516 48.9862 66.064 48.2278 66.1196C47.5395 66.17 46.8444 66.1128 46.1531 66.1323C45.2414 66.1579 44.4871 65.9062 44.1128 64.9792C43.751 64.0832 44.1584 63.4119 44.7631 62.7986C46.8783 60.6535 48.9875 58.5023 51.1536 56.2977ZM54.7971 57.8906C53.332 59.3823 51.8669 60.8739 50.275 62.4948C52.5113 62.6565 52.7177 62.8895 52.7181 64.9542C52.7184 66.2523 52.7182 67.5504 52.7182 68.8485C52.7182 70.282 52.7182 71.7154 52.7182 73.1548C55.1315 73.1548 57.3978 73.1548 59.7195 73.1548C59.7195 70.1273 59.711 67.1989 59.7235 64.2707C59.7287 63.046 60.1453 62.6332 61.3507 62.5656C61.5494 62.5545 61.7475 62.5295 61.8312 62.5217C59.926 60.5756 58.016 58.6247 55.9778 56.5429C55.6725 56.8952 55.2896 57.3371 54.7971 57.8906Z" fill="#2B486E"/>
</g>
<defs>
<clipPath id="clip0_130_10294">
<rect width="112" height="114" fill="white"/>
</clipPath>
</defs>
</svg>
