<svg width="66" height="67" viewBox="0 0 66 67" fill="none" xmlns="http://www.w3.org/2000/svg">
<g clip-path="url(#clip0_204_58)">
<path d="M58.5024 12.0343C59.5567 12.7922 60.0525 13.7584 59.955 15.059C59.8856 15.9851 59.9416 16.9208 59.9416 17.9278C60.7589 17.9278 61.5045 17.9262 62.2501 17.9282C63.7972 17.9323 65.0969 19.2463 65.097 20.8153C65.0984 32.8524 65.0984 44.8895 65.0969 56.9266C65.0967 58.4932 63.7946 59.802 62.2389 59.8021C42.8416 59.8031 23.4444 59.803 4.04712 59.8023C2.44999 59.8022 1.16108 58.5027 1.16094 56.8908C1.15989 44.8755 1.15992 32.8602 1.1609 20.8449C1.16103 19.2299 2.44795 17.9309 4.04397 17.928C4.77048 17.9267 5.49699 17.9278 6.31655 17.9278C6.31655 17.6419 6.31654 17.4111 6.31655 17.1803C6.31658 14.8907 6.31375 12.601 6.31764 10.3113C6.32023 8.78776 7.63035 7.46085 9.13519 7.46006C14.1617 7.45741 19.1885 7.48501 24.2145 7.43477C25.1048 7.42587 25.7498 7.718 26.3955 8.2651C27.6328 9.31343 28.8992 10.3275 30.1792 11.3218C30.4224 11.5108 30.7841 11.6328 31.0914 11.6333C39.7267 11.6497 48.3621 11.6405 56.9973 11.6625C57.4838 11.6637 57.9696 11.8959 58.5024 12.0343ZM3.22281 24.2745C3.22281 34.8064 3.22269 45.3383 3.22296 55.8702C3.223 57.3014 3.62713 57.7089 5.04623 57.7089C23.7551 57.7091 42.4641 57.7091 61.173 57.7089C62.6395 57.7089 63.0352 57.3129 63.0352 55.8441C63.0354 44.5272 63.0354 33.2103 63.0352 21.8934C63.0352 20.4189 62.6411 20.0216 61.1794 20.0216C42.492 20.0215 23.8045 20.0215 5.11708 20.0215C5.00968 20.0215 4.90227 20.0205 4.79489 20.0218C3.71024 20.0345 3.23502 20.5044 3.22457 21.5924C3.21641 22.4427 3.22285 23.2932 3.22281 24.2745ZM18.4982 9.55277C15.6423 9.55278 12.7863 9.5521 9.93036 9.55315C8.74814 9.55359 8.38041 9.91998 8.37952 11.0987C8.37804 13.0606 8.37875 15.0225 8.37923 16.9844C8.37947 17.9268 8.38019 17.9276 9.32131 17.9276C25.1901 17.9278 41.0589 17.9278 56.9277 17.9278C56.9921 17.9278 57.0576 17.9199 57.1208 17.9289C57.683 18.0083 57.946 17.8204 57.8904 17.1888C57.8371 16.5833 57.8796 15.9691 57.8789 15.3587C57.8776 14.082 57.5392 13.7406 56.2702 13.7405C47.6808 13.7401 39.0915 13.7364 30.5022 13.7488C29.9314 13.7496 29.4734 13.5957 29.0325 13.2271C27.7397 12.1465 26.4105 11.1108 25.1192 10.0286C24.7148 9.68966 24.3118 9.53194 23.7805 9.54139C22.0632 9.57196 20.345 9.55278 18.4982 9.55277Z" fill="white"/>
<path d="M18.5624 9.55279C20.3448 9.5528 22.063 9.57198 23.7803 9.54142C24.3116 9.53196 24.7146 9.68969 25.119 10.0286C26.4103 11.1109 27.7395 12.1466 29.0322 13.2272C29.4732 13.5958 29.9312 13.7496 30.502 13.7488C39.0913 13.7365 47.6806 13.7401 56.27 13.7405C57.539 13.7406 57.8774 14.0821 57.8787 15.3588C57.8793 15.9691 57.8369 16.5833 57.8902 17.1888C57.9458 17.8204 57.6828 18.0083 57.1206 17.9289C57.0574 17.92 56.9919 17.9278 56.9275 17.9278C41.0587 17.9278 25.1899 17.9278 9.32109 17.9277C8.37998 17.9276 8.37926 17.9268 8.37902 16.9844C8.37853 15.0225 8.37783 13.0606 8.37931 11.0987C8.38019 9.92 8.74793 9.55361 9.93014 9.55318C12.7861 9.55213 15.642 9.55281 18.5624 9.55279Z" fill="white"/>
<path d="M7.34754 54.5683C10.0969 54.5683 12.7819 54.5675 15.4668 54.5688C16.3674 54.5693 16.6326 54.8143 16.6285 55.6307C16.6246 56.4059 16.3491 56.661 15.4985 56.6614C12.1263 56.663 8.75398 56.663 5.38169 56.6614C4.52805 56.661 4.25771 56.4099 4.25395 55.6306C4.25007 54.8276 4.51039 54.5733 5.34995 54.5691C5.99432 54.5658 6.63872 54.5684 7.34754 54.5683Z" fill="white"/>
<path d="M17.6668 55.9429C17.6586 54.7583 17.8419 54.5689 18.9411 54.5679C19.1761 54.5677 19.4111 54.5667 19.6461 54.5682C20.5546 54.5739 20.9982 55.1864 20.721 56.0613C20.6829 56.1816 20.6214 56.3051 20.5392 56.3984C20.0284 56.9774 18.0161 56.6921 17.6668 55.9429Z" fill="white"/>
<path d="M34.3199 32.1868C34.3199 31.4601 33.73 30.873 32.9999 30.873C32.2698 30.873 31.6799 31.4601 31.6799 32.1868V38.0985H25.7399C25.0098 38.0985 24.4199 38.6856 24.4199 39.4123C24.4199 40.1389 25.0098 40.726 25.7399 40.726H31.6799V46.6378C31.6799 47.3644 32.2698 47.9515 32.9999 47.9515C33.73 47.9515 34.3199 47.3644 34.3199 46.6378V40.726H40.2599C40.99 40.726 41.5799 40.1389 41.5799 39.4123C41.5799 38.6856 40.99 38.0985 40.2599 38.0985H34.3199V32.1868Z" fill="white"/>
</g>
<defs>
<clipPath id="clip0_204_58">
<rect width="66" height="67" fill="white"/>
</clipPath>
</defs>
</svg>
