<svg width="62" height="63" viewBox="0 0 62 63" fill="none" xmlns="http://www.w3.org/2000/svg">
<g clip-path="url(#clip0_204_4)">
<path d="M54.9568 11.3154C55.9472 12.028 56.413 12.9365 56.3214 14.1595C56.2562 15.0302 56.3087 15.9101 56.3087 16.857C57.0765 16.857 57.7769 16.8555 58.4773 16.8573C59.9307 16.8613 61.1516 18.0968 61.1518 19.5721C61.153 30.8906 61.1531 42.209 61.1516 53.5275C61.1515 55.0006 59.9282 56.2313 58.4668 56.2314C40.2451 56.2323 22.0235 56.2322 3.80184 56.2315C2.3015 56.2315 1.09071 55.0095 1.09058 53.4939C1.08959 42.1959 1.08962 30.8979 1.09054 19.5999C1.09066 18.0813 2.29959 16.8599 3.79889 16.8572C4.48136 16.856 5.16384 16.857 5.93372 16.857C5.93372 16.5882 5.93372 16.3712 5.93372 16.1542C5.93375 14.0012 5.9311 11.8482 5.93475 9.69525C5.93719 8.26264 7.1679 7.01495 8.58154 7.0142C13.3034 7.01171 18.0256 7.03766 22.747 6.99042C23.5833 6.98205 24.1892 7.25674 24.7958 7.77118C25.9581 8.75693 27.1477 9.71048 28.3501 10.6454C28.5786 10.8231 28.9184 10.9378 29.2071 10.9383C37.319 10.9538 45.431 10.945 53.5429 10.9658C53.9999 10.9669 54.4563 11.1852 54.9568 11.3154ZM3.02749 22.8248C3.02749 32.7279 3.02737 42.6311 3.02763 52.5342C3.02767 53.88 3.40731 54.2631 4.7404 54.2631C22.3154 54.2633 39.8905 54.2633 57.4655 54.2632C58.8432 54.2631 59.2149 53.8908 59.2149 52.5097C59.2151 41.8684 59.2151 31.2271 59.2149 20.5858C59.2149 19.1994 58.8447 18.8258 57.4715 18.8258C39.9167 18.8257 22.3618 18.8257 4.80695 18.8257C4.70606 18.8257 4.60516 18.8248 4.50429 18.826C3.48538 18.8379 3.03896 19.2797 3.02915 20.3028C3.02148 21.1024 3.02753 21.9021 3.02749 22.8248ZM17.3771 8.98197C14.6942 8.98199 12.0114 8.98135 9.32852 8.98234C8.21795 8.98274 7.8725 9.32726 7.87167 10.4356C7.87028 12.2804 7.87094 14.1251 7.8714 15.9699C7.87162 16.856 7.8723 16.8568 8.75638 16.8568C23.6634 16.857 38.5705 16.857 53.4775 16.857C53.538 16.857 53.5996 16.8496 53.6589 16.858C54.1871 16.9327 54.4342 16.756 54.3819 16.1621C54.3318 15.5927 54.3717 15.0152 54.3711 14.4413C54.3699 13.2408 54.052 12.9198 52.8598 12.9197C44.7911 12.9193 36.7223 12.9159 28.6536 12.9275C28.1174 12.9282 27.6871 12.7836 27.2729 12.437C26.0585 11.4209 24.8099 10.447 23.5968 9.42939C23.2169 9.11069 22.8383 8.96238 22.3393 8.97127C20.726 9.00002 19.1119 8.98198 17.3771 8.98197Z" fill="#2B486E"/>
<path d="M17.4374 8.98275C19.1117 8.98276 20.7258 9.0008 22.339 8.97206C22.8381 8.96317 23.2167 9.11147 23.5966 9.43017C24.8097 10.4478 26.0583 11.4217 27.2727 12.4378C27.6869 12.7844 28.1172 12.929 28.6533 12.9282C36.7221 12.9167 44.7909 12.9201 52.8596 12.9205C54.0517 12.9205 54.3696 13.2416 54.3709 14.4421C54.3715 15.016 54.3316 15.5935 54.3817 16.1629C54.4339 16.7568 54.1868 16.9335 53.6587 16.8588C53.5993 16.8504 53.5378 16.8577 53.4773 16.8577C38.5703 16.8577 23.6632 16.8578 8.75615 16.8576C7.87207 16.8576 7.87139 16.8568 7.87117 15.9707C7.87071 14.1259 7.87005 12.2812 7.87144 10.4364C7.87227 9.32804 8.21772 8.98353 9.32829 8.98312C12.0111 8.98213 14.694 8.98277 17.4374 8.98275Z" fill="#2B486E"/>
<path d="M6.90224 51.3105C9.48498 51.3105 12.0072 51.3097 14.5294 51.3109C15.3754 51.3113 15.6246 51.5418 15.6207 52.3094C15.617 53.0383 15.3582 53.2782 14.5592 53.2786C11.3913 53.28 8.22344 53.2801 5.05553 53.2785C4.25362 53.2782 3.99967 53.0421 3.99613 52.3093C3.99249 51.5543 4.23703 51.3152 5.02571 51.3111C5.63103 51.308 6.23638 51.3105 6.90224 51.3105Z" fill="#2B486E"/>
<path d="M16.5959 52.6039C16.5882 51.4901 16.7605 51.3119 17.793 51.3111C18.0138 51.3109 18.2346 51.3099 18.4554 51.3113C19.3087 51.3167 19.7255 51.8926 19.4651 52.7152C19.4293 52.8284 19.3716 52.9445 19.2943 53.0323C18.8144 53.5767 16.9241 53.3084 16.5959 52.6039Z" fill="#2B486E"/>
</g>
<defs>
<clipPath id="clip0_204_4">
<rect width="62" height="63" fill="white"/>
</clipPath>
</defs>
</svg>
