<svg width="51" height="53" viewBox="0 0 51 53" fill="none" xmlns="http://www.w3.org/2000/svg">
<path d="M17.0583 41.1371C17.0583 41.3441 16.8218 41.5098 16.5236 41.5098C16.1843 41.5408 15.9478 41.3752 15.9478 41.1371C15.9478 40.9301 16.1843 40.7645 16.4825 40.7645C16.7909 40.7334 17.0583 40.899 17.0583 41.1371ZM13.8605 40.6713C13.7885 40.8783 13.9942 41.1164 14.3026 41.1785C14.57 41.282 14.8784 41.1785 14.9401 40.9715C15.0018 40.7645 14.8065 40.5264 14.498 40.4332C14.2306 40.3607 13.9325 40.4643 13.8605 40.6713ZM18.4052 40.4953C18.1071 40.5678 17.9014 40.7645 17.9323 41.0025C17.9631 41.2096 18.2304 41.3441 18.5389 41.2717C18.8371 41.1992 19.0427 41.0025 19.0119 40.7955C18.981 40.5988 18.7034 40.4643 18.4052 40.4953ZM25.171 0.828125C10.9095 0.828125 0 11.7283 0 26.0859C0 37.5658 7.17702 47.3895 17.4284 50.8469C18.7446 51.085 19.2073 50.2672 19.2073 49.5943C19.2073 48.9525 19.1764 45.4123 19.1764 43.2385C19.1764 43.2385 11.9788 44.7912 10.4673 40.1537C10.4673 40.1537 9.29516 37.1414 7.60887 36.365C7.60887 36.365 5.25423 34.7398 7.77339 34.7709C7.77339 34.7709 10.3337 34.9779 11.7423 37.4416C13.9942 41.4373 17.7677 40.2883 19.2381 39.6051C19.4746 37.9488 20.1429 36.7998 20.8833 36.1166C15.1355 35.4748 9.33629 34.6363 9.33629 24.6781C9.33629 21.8314 10.1177 20.4029 11.7629 18.5811C11.4956 17.9082 10.6216 15.134 12.0302 11.5523C14.1792 10.8795 19.125 14.3473 19.125 14.3473C21.1815 13.7676 23.3921 13.4674 25.5823 13.4674C27.7724 13.4674 29.9831 13.7676 32.0395 14.3473C32.0395 14.3473 36.9853 10.8691 39.1343 11.5523C40.5429 15.1443 39.669 17.9082 39.4016 18.5811C41.0468 20.4133 42.0544 21.8418 42.0544 24.6781C42.0544 34.6674 35.9982 35.4645 30.2504 36.1166C31.1964 36.9344 31.9984 38.4871 31.9984 40.9197C31.9984 44.4082 31.9675 48.7248 31.9675 49.5736C31.9675 50.2465 32.4405 51.0643 33.7464 50.8262C44.0286 47.3895 51 37.5658 51 26.0859C51 11.7283 39.4325 0.828125 25.171 0.828125ZM9.99435 36.5307C9.86069 36.6342 9.89153 36.8723 10.0663 37.0689C10.2308 37.2346 10.4673 37.307 10.601 37.1725C10.7347 37.0689 10.7038 36.8309 10.529 36.6342C10.3645 36.4686 10.128 36.3961 9.99435 36.5307ZM8.88387 35.6922C8.8119 35.8268 8.91472 35.9924 9.12036 36.0959C9.28488 36.1994 9.49052 36.1684 9.5625 36.0234C9.63448 35.8889 9.53165 35.7232 9.32601 35.6197C9.12036 35.5576 8.95585 35.5887 8.88387 35.6922ZM12.2153 39.3773C12.0508 39.5119 12.1125 39.8225 12.349 40.0191C12.5855 40.2572 12.8837 40.2883 13.0173 40.1227C13.151 39.9881 13.0893 39.6775 12.8837 39.4809C12.6575 39.2428 12.349 39.2117 12.2153 39.3773ZM11.0431 37.8557C10.8786 37.9592 10.8786 38.2283 11.0431 38.4664C11.2077 38.7045 11.4853 38.808 11.619 38.7045C11.7835 38.5699 11.7835 38.3008 11.619 38.0627C11.475 37.8246 11.2077 37.7211 11.0431 37.8557Z" fill="white"/>
</svg>
