<svg width="174" height="173" viewBox="0 0 174 173" fill="none" xmlns="http://www.w3.org/2000/svg">
<path d="M49 43.25C42.1055 43.25 36.5 48.8555 36.5 55.75V105.75H49V55.75H124V105.75H136.5V55.75C136.5 48.8555 130.895 43.25 124 43.25H49ZM27.75 112C25.6797 112 24 113.68 24 115.75C24 124.031 30.7188 130.75 39 130.75H134C142.281 130.75 149 124.031 149 115.75C149 113.68 147.32 112 145.25 112H27.75Z" fill="#2B486E"/>
<rect x="9" y="9" width="156" height="156" stroke="#2B486E" stroke-width="8"/>
<rect x="155" width="19" height="19" fill="#2B486E"/>
<rect x="155" y="154" width="19" height="19" fill="#2B486E"/>
<rect y="154" width="19" height="19" fill="#2B486E"/>
<rect width="19" height="19" fill="#2B486E"/>
</svg>
