<svg width="50" height="57" viewBox="0 0 50 57" fill="none" xmlns="http://www.w3.org/2000/svg">
<path d="M46.4286 3.5625H3.56027C1.59598 3.5625 0 5.17676 0 7.1584V49.8416C0 51.8232 1.59598 53.4375 3.56027 53.4375H46.4286C48.3929 53.4375 50 51.8232 50 49.8416V7.1584C50 5.17676 48.3929 3.5625 46.4286 3.5625ZM15.1116 46.3125H7.70089V22.5105H15.1228V46.3125H15.1116ZM11.4062 19.2598C9.02902 19.2598 7.10938 17.3338 7.10938 14.9736C7.10938 12.6135 9.02902 10.6875 11.4062 10.6875C13.7723 10.6875 15.7031 12.6135 15.7031 14.9736C15.7031 17.3449 13.7835 19.2598 11.4062 19.2598ZM42.8906 46.3125H35.4799V34.7344C35.4799 31.9734 35.4241 28.4221 31.6295 28.4221C27.7679 28.4221 27.1763 31.4279 27.1763 34.534V46.3125H19.7656V22.5105H26.875V25.7613H26.9754C27.9688 23.891 30.3906 21.9205 33.9955 21.9205C41.4955 21.9205 42.8906 26.8523 42.8906 33.2648V46.3125Z" fill="white"/>
</svg>
