<svg width="45" height="45" viewBox="0 0 45 45" fill="none" xmlns="http://www.w3.org/2000/svg">
<path d="M4.21875 5.625C1.88965 5.625 0 7.51465 0 9.84375C0 11.1709 0.624023 12.4189 1.6875 13.2187L20.8125 27.5625C21.8145 28.3096 23.1855 28.3096 24.1875 27.5625L43.3125 13.2187C44.376 12.4189 45 11.1709 45 9.84375C45 7.51465 43.1104 5.625 40.7812 5.625H4.21875ZM0 15.4688V33.75C0 36.8525 2.52246 39.375 5.625 39.375H39.375C42.4775 39.375 45 36.8525 45 33.75V15.4688L25.875 29.8125C23.8711 31.3154 21.1289 31.3154 19.125 29.8125L0 15.4688Z" fill="white"/>
</svg>
