<svg width="174" height="173" viewBox="0 0 174 173" fill="none" xmlns="http://www.w3.org/2000/svg">
<rect x="9" y="9" width="156" height="156" stroke="#2B486E" stroke-width="8"/>
<rect x="155" width="19" height="19" fill="#2B486E"/>
<rect x="155" y="154" width="19" height="19" fill="#2B486E"/>
<rect y="154" width="19" height="19" fill="#2B486E"/>
<rect width="19" height="19" fill="#2B486E"/>
<g clip-path="url(#clip0_489_8748)">
<path d="M95.375 57.7735V106.124C95.375 109.65 92.5262 112.499 89 112.499C85.4738 112.499 82.625 109.65 82.625 106.124V57.7735L68.0023 72.3962C65.5121 74.8864 61.468 74.8864 58.9777 72.3962C56.4875 69.906 56.4875 65.8618 58.9777 63.3716L84.4777 37.8716C86.968 35.3813 91.0121 35.3813 93.5023 37.8716L119.002 63.3716C121.493 65.8618 121.493 69.906 119.002 72.3962C116.512 74.8864 112.468 74.8864 109.978 72.3962L95.375 57.7735ZM50.75 106.124H76.25C76.25 113.156 81.9676 118.874 89 118.874C96.0324 118.874 101.75 113.156 101.75 106.124H127.25C134.282 106.124 140 111.842 140 118.874V125.249C140 132.281 134.282 137.999 127.25 137.999H50.75C43.7176 137.999 38 132.281 38 125.249V118.874C38 111.842 43.7176 106.124 50.75 106.124ZM124.062 126.843C125.331 126.843 126.547 126.339 127.443 125.442C128.34 124.546 128.844 123.329 128.844 122.061C128.844 120.793 128.34 119.577 127.443 118.681C126.547 117.784 125.331 117.28 124.062 117.28C122.794 117.28 121.578 117.784 120.682 118.681C119.785 119.577 119.281 120.793 119.281 122.061C119.281 123.329 119.785 124.546 120.682 125.442C121.578 126.339 122.794 126.843 124.062 126.843Z" fill="#2B486E"/>
</g>
<defs>
<clipPath id="clip0_489_8748">
<rect width="102" height="102" fill="white" transform="translate(38 36)"/>
</clipPath>
</defs>
</svg>
